<?xml version="1.0" encoding="UTF-8"?>
<svg xmlns="http://www.w3.org/2000/svg" xmlns:xlink="http://www.w3.org/1999/xlink" width="234pt" height="234pt" viewBox="0 0 234 234" version="1.1">
<defs>
<clipPath id="clip1">
  <path d="M 24 24 L 208 24 L 208 208 L 24 208 Z M 24 24 "/>
</clipPath>
</defs>
<g id="surface16">
<g clip-path="url(#clip1)" clip-rule="nonzero">
<path style="fill:none;stroke-width:9.167937;stroke-linecap:square;stroke-linejoin:miter;stroke:rgb(0%,0%,0%);stroke-opacity:1;stroke-miterlimit:3.25;" d="M 90.582031 212.941406 L 90.640625 212.722656 L 90.695313 212.503906 L 90.808594 212.066406 L 91.035156 211.203125 L 91.484375 209.5 L 92.382813 206.203125 L 94.183594 199.988281 L 98.085938 187.980469 L 101.726563 178.199219 L 105.300781 169.648438 L 109.175781 161.308594 L 112.789063 154.242188 L 116.710938 147.230469 L 120.554688 140.902344 L 124.144531 135.417969 L 128.035156 129.871094 L 131.667969 125.019531 L 135.230469 120.53125 L 139.09375 115.933594 L 142.699219 111.871094 L 146.609375 107.691406 L 150.445313 103.789063 L 154.023438 100.316406 L 157.90625 96.710938 L 161.527344 93.488281 L 165.453125 90.136719 L 169.304688 86.976563 L 172.902344 84.140625 L 176.796875 81.171875 L 180.4375 78.5 L 184.003906 75.960938 L 187.875 73.296875 L 191.488281 70.890625 L 195.402344 68.359375 L 199.246094 65.953125 L 202.832031 63.769531 L 206.71875 61.46875 L 210.347656 59.382813 L 213.90625 57.386719 L 217.765625 55.273438 L 221.367188 53.355469 L 225.269531 51.324219 L 228.914063 49.472656 L 232.492188 47.699219 L 236.367188 45.820313 L 239.984375 44.101563 L 243.90625 42.285156 L 247.757813 40.539063 L 251.347656 38.945313 L 255.242188 37.25 L 258.875 35.703125 L 262.441406 34.210938 L 266.308594 32.625 L 269.914063 31.175781 L 269.976563 31.148438 L 270.039063 31.125 L 270.167969 31.074219 L 270.417969 30.972656 L 271.929688 30.375 L 271.992188 30.351563 L 272.054688 30.324219 L 272.179688 30.277344 L 272.433594 30.175781 L 272.9375 29.976563 L 273.0625 29.929688 L 273.1875 29.878906 L 273.4375 29.78125 L 273.503906 29.757813 L 273.566406 29.730469 L 273.691406 29.683594 L 273.753906 29.65625 L 273.878906 29.609375 L 273.941406 29.582031 " transform="matrix(1,0,0,1,-66,-5)"/>
</g>
<path style="fill:none;stroke-width:9.167937;stroke-linecap:butt;stroke-linejoin:miter;stroke:rgb(0%,0%,0%);stroke-opacity:1;stroke-miterlimit:3.25;" d="M 90.582031 212.941406 L 273.941406 212.941406 " transform="matrix(1,0,0,1,-66,-5)"/>
<path style="fill:none;stroke-width:9.167937;stroke-linecap:butt;stroke-linejoin:miter;stroke:rgb(0%,0%,0%);stroke-opacity:1;stroke-miterlimit:3.25;" d="M 90.582031 212.941406 L 90.582031 29.582031 " transform="matrix(1,0,0,1,-66,-5)"/>
</g>
</svg>
